<svg version="1.1" id="Layer_1" xmlns="http://www.w3.org/2000/svg" xmlns:xlink="http://www.w3.org/1999/xlink" x="0px" y="0px"
	 width="100%" viewBox="0 0 272 224" enable-background="new 0 0 272 224" xml:space="preserve">
<path fill="#000000" opacity="1.000000" stroke="none" 
	d="
M70.339218,123.897186 
	C61.031773,118.255074 58.256397,110.494698 61.717247,100.720352 
	C64.865036,91.830177 71.444054,85.668633 78.579002,80.153282 
	C84.764130,75.372147 91.501030,71.350365 98.897041,68.567230 
	C101.459724,67.602875 103.270073,66.521156 102.824142,62.814411 
	C100.546394,43.881210 112.085701,38.380314 126.603836,39.509354 
	C141.320038,40.653797 153.839630,47.760807 165.391983,56.544582 
	C167.374435,58.051949 168.859360,58.738422 171.018066,56.871754 
	C184.837311,44.922028 198.057678,51.994305 204.182480,66.632561 
	C209.107407,78.403099 210.258102,90.788155 208.697037,103.354263 
	C208.063400,108.454849 207.800919,111.715546 214.118484,114.107956 
	C226.489456,118.792755 228.749100,132.499512 220.077637,144.665787 
	C212.310333,155.563492 201.645218,162.830292 189.623535,168.146149 
	C184.875626,170.245636 181.914139,171.742294 182.942261,178.415817 
	C184.992157,191.721832 172.323563,201.540192 157.908585,198.873001 
	C142.554779,196.032104 136.676239,193.291245 117.056046,179.794235 
	C114.356880,181.523560 111.654465,183.387878 108.827629,185.039215 
	C102.373032,188.809769 94.458557,187.869568 88.968575,182.836365 
	C80.388618,174.970306 78.169464,164.430984 76.730835,153.599518 
	C75.672302,145.629807 76.015572,137.696564 77.379326,129.752090 
	C78.274307,124.538368 72.867058,126.039421 70.339218,123.897186 
M167.247070,87.700996 
	C166.312561,92.745972 165.400330,97.795204 164.435211,102.834320 
	C163.855911,105.858932 165.195740,107.486176 168.015182,108.358612 
	C174.017120,110.215820 179.828339,112.039200 186.430817,110.882599 
	C194.361603,109.493309 196.994324,106.461479 195.126999,98.476295 
	C192.536789,87.399704 185.680801,78.912651 178.139297,70.861465 
	C176.142563,68.729790 174.674118,69.570442 173.469269,71.685112 
	C170.742294,76.471352 168.691833,81.532494 167.247070,87.700996 
M149.299118,88.803169 
	C153.383652,85.194244 156.088943,80.724060 158.072372,75.657158 
	C160.004593,70.721100 159.329330,68.066360 154.912048,65.191811 
	C150.665314,62.428257 145.783463,61.849731 141.027603,61.683594 
	C132.451874,61.384022 123.918129,62.152405 115.938156,65.257523 
	C115.804909,67.434937 116.789368,68.570145 117.575714,69.849052 
	C122.454674,77.784164 129.284805,83.842667 136.449173,89.570312 
	C142.578781,94.470718 142.612457,94.428596 149.299118,88.803169 
M177.052933,157.747253 
	C181.028839,158.382172 184.166885,156.785110 186.930527,154.100632 
	C194.952911,146.308060 198.876450,136.279648 202.287933,125.977135 
	C203.116776,123.474091 202.202011,122.216789 199.471146,122.160141 
	C187.683807,121.915611 176.973618,125.741562 166.572571,130.758911 
	C165.112534,131.463196 164.167572,132.608200 164.434326,134.335373 
	C165.831696,143.382675 168.708603,151.685364 177.052933,157.747253 
M111.097824,82.225075 
	C106.928871,78.620232 103.098640,80.091270 99.594337,83.209343 
	C90.683098,91.138382 86.343636,101.683052 82.974922,112.757698 
	C81.997093,115.972328 83.600700,116.442894 86.333275,116.310616 
	C96.929718,115.797684 106.884827,112.932556 116.583130,108.761230 
	C120.445610,107.099937 121.207306,104.555542 120.512001,100.836685 
	C119.226128,93.959061 116.233955,87.970566 111.097824,82.225075 
M162.312836,161.187286 
	C157.271301,155.645081 151.860046,150.511017 145.689346,146.226471 
	C144.058121,145.093857 142.513458,143.804657 140.378128,145.581848 
	C134.294144,150.645462 129.088196,156.302963 126.726883,164.105515 
	C125.691566,167.526550 126.330475,170.338364 129.418411,172.354752 
	C132.086075,174.096756 134.981750,175.214859 138.139786,175.830582 
	C146.118912,177.386246 153.993912,176.541489 161.841476,175.022629 
	C164.494171,174.509201 167.489517,174.686234 169.565308,172.052124 
	C168.086716,168.019989 165.706421,164.694733 162.312836,161.187286 
M107.976334,168.071442 
	C110.816071,170.467102 111.380684,167.528809 112.221291,166.068115 
	C117.559975,156.791290 119.270851,146.472839 120.727913,136.065445 
	C121.298477,131.990097 119.180847,130.388657 115.788681,129.313416 
	C112.284088,128.202545 108.750587,127.334808 105.094353,126.981560 
	C91.662834,125.683853 86.578918,132.734863 91.996338,145.204620 
	C95.685448,153.696167 100.898811,161.153564 107.976334,168.071442 
M205.207764,100.491760 
	C204.705734,96.709671 204.300705,92.911636 203.682098,89.148712 
	C202.260712,80.502350 199.501328,72.328224 194.119598,65.302177 
	C189.255219,58.951591 182.675507,59.041691 178.785141,65.344841 
	C191.973022,77.545906 206.247543,89.158310 204.618668,110.102921 
	C206.215164,107.137505 205.374680,104.166389 205.207764,100.491760 
M80.355568,140.164444 
	C80.696365,142.626968 80.891251,145.120285 81.403564,147.546600 
	C83.465858,157.313522 85.355553,167.172119 93.093193,174.491165 
	C97.871933,179.011383 101.997932,178.656143 106.604469,173.074951 
	C93.501511,160.610657 78.705490,148.990768 80.603531,127.747581 
	C79.312660,131.639267 80.533928,135.463562 80.355568,140.164444 
M130.768143,55.968517 
	C139.225723,54.225807 147.714371,53.875977 156.300858,55.391304 
	C150.144760,52.473129 143.929108,49.843792 137.274277,48.450623 
	C131.227371,47.184723 125.150261,46.482296 119.088791,48.371399 
	C115.667770,49.437584 113.310005,51.717480 112.496864,55.201897 
	C111.531044,59.340553 113.626427,61.261761 117.612167,59.924103 
	C121.692696,58.554634 125.662483,56.848289 130.768143,55.968517 
M201.013885,146.396301 
	C198.662094,153.207062 194.389526,158.772263 189.454071,163.929489 
	C192.185608,162.241928 194.846222,160.554077 197.224228,158.533615 
	C204.473892,152.373978 211.405350,145.924454 214.929047,136.716019 
	C217.801346,129.209869 215.198166,124.259079 207.417023,123.294960 
	C205.645447,130.789398 204.634476,138.577393 201.013885,146.396301 
M80.053452,104.867210 
	C82.704941,94.366440 86.554535,84.432388 93.728264,76.023514 
	C83.221130,82.804108 74.261436,90.934380 70.047127,103.084061 
	C67.672287,109.930618 70.829475,114.360909 78.298599,114.896126 
	C78.809692,111.844780 79.326271,108.760719 80.053452,104.867210 
M162.853958,190.645233 
	C167.528366,189.373413 172.474243,188.490158 172.724945,182.046722 
	C172.869293,178.337219 171.842102,176.593887 167.825882,178.180374 
	C164.908783,179.332672 161.918213,180.325027 158.908157,181.211182 
	C149.604797,183.950027 140.111053,184.476257 130.463120,183.248810 
	C140.358261,188.623276 150.757828,191.449936 162.853958,190.645233 
M136.970779,114.542381 
	C133.947495,117.583031 135.412872,121.081802 137.104736,123.593094 
	C138.497330,125.660164 141.444321,127.523453 144.520111,126.186272 
	C148.092834,124.633049 150.375687,122.238503 149.683319,117.722069 
	C148.833389,112.178192 143.372101,110.460716 136.970779,114.542381 
z"/>
</svg>