<svg version="1.1" id="Layer_1" xmlns="http://www.w3.org/2000/svg" xmlns:xlink="http://www.w3.org/1999/xlink" x="0px" y="0px"
	 width="100%" viewBox="0 0 1206 464" enable-background="new 0 0 1206 464" xml:space="preserve">
<path fill="#4465AE" opacity="1.000000" stroke="none" 
	d="
M797.000000,1.000005 
	C844.020874,1.000000 891.041809,1.000000 938.539917,1.382038 
	C942.549072,7.887361 945.622559,14.339091 949.719360,20.057648 
	C956.001465,28.826431 962.858704,37.196819 969.712891,45.538246 
	C976.236938,53.477997 982.649841,61.581535 989.877136,68.852028 
	C998.265747,77.290680 1007.684509,84.694504 1016.305603,92.915138 
	C1031.468384,107.373558 1048.784058,119.028824 1066.714111,129.385895 
	C1084.475464,139.645615 1103.354248,148.105988 1122.187744,156.338257 
	C1142.775269,165.337234 1164.291748,171.766068 1186.499756,175.612411 
	C1193.323975,176.794342 1200.166138,177.873688 1207.000000,179.000000 
	C1207.000000,221.687561 1207.000000,264.375122 1206.582031,307.528473 
	C1196.095947,305.550415 1186.096680,302.752319 1175.938477,300.769867 
	C1167.112793,299.047485 1158.047607,299.931213 1149.229126,296.360016 
	C1141.460938,293.214081 1132.652832,292.635956 1124.304810,290.919708 
	C1123.979980,290.852905 1123.652832,290.770203 1123.345581,290.647797 
	C1116.213623,287.806213 1109.494385,283.664948 1101.429199,283.755859 
	C1100.808594,283.762848 1100.135010,283.419464 1099.567017,283.096466 
	C1092.980957,279.350861 1086.288574,276.001831 1078.534302,275.283478 
	C1076.692383,275.112854 1074.951538,273.818237 1073.170898,273.025604 
	C1069.415283,271.353821 1065.650269,269.702515 1061.915161,267.986115 
	C1058.046997,266.208618 1054.206665,264.370575 1050.360229,262.546021 
	C1048.613281,261.717285 1046.904541,260.804047 1045.136841,260.023560 
	C1042.302734,258.772247 1039.343262,257.771881 1036.609619,256.336487 
	C1034.577393,255.269455 1032.964111,253.383408 1030.911133,252.380768 
	C1024.488647,249.244232 1017.014160,247.482147 1011.685974,243.082108 
	C1005.009521,237.568726 995.508240,236.706955 990.360962,229.155289 
	C990.036499,228.679153 989.211243,228.549149 988.625427,228.245651 
	C985.466858,226.609177 982.303711,224.981400 979.154785,223.326538 
	C975.265686,221.282745 971.389038,219.215378 967.280029,216.848114 
	C964.757019,211.715698 964.337891,206.596161 967.844910,202.540558 
	C970.897217,199.010681 975.493469,199.122604 979.833130,200.861084 
	C986.782471,203.645035 986.784302,203.637375 989.329224,196.416367 
	C989.603394,195.638412 989.926331,194.877060 990.184326,194.094070 
	C992.052429,188.425537 991.468323,187.245224 985.670227,185.570969 
	C974.404236,182.317841 960.335876,183.854233 950.534424,200.364273 
	C948.516724,199.453949 946.707031,198.888718 945.348267,197.773834 
	C937.727112,191.520599 929.832764,185.531647 922.746643,178.709747 
	C908.941528,165.419464 895.453430,151.788208 882.153931,137.989746 
	C876.247742,131.861893 870.864807,125.178925 865.692017,118.406021 
	C856.605347,106.508438 847.862793,94.348000 838.979431,82.295219 
	C838.782898,82.028557 838.611877,81.740234 838.453735,81.448608 
	C832.570984,70.600777 827.550232,59.226234 819.095764,49.950855 
	C818.446838,49.238941 818.144775,48.205875 817.702148,47.311825 
	C814.355713,40.551659 810.785156,33.890610 807.729797,27.001186 
	C803.929993,18.433109 800.557190,9.675675 797.000000,1.000005 
z"/>
<path fill="#395CAA" opacity="1.000000" stroke="none" 
	d="
M513.000000,1.000000 
	C533.687561,1.000000 554.375122,1.000000 575.541687,1.405711 
	C577.731079,8.200081 579.147034,14.686027 581.218018,20.955574 
	C584.694763,31.480330 588.457886,41.916168 592.341309,52.299389 
	C596.683838,63.910160 600.918640,75.585152 605.884705,86.932678 
	C611.921448,100.726822 618.375061,114.359810 625.208252,127.777374 
	C630.756592,138.671936 637.106873,149.159561 643.147827,159.801376 
	C647.727112,167.868347 652.379211,175.893936 656.537476,184.022995 
	C651.749939,184.124466 647.422058,184.068146 643.098145,184.174026 
	C636.314514,184.340118 635.018982,185.644730 635.012329,192.426773 
	C634.983826,221.542175 635.096191,250.658325 634.888306,279.772278 
	C634.856750,284.196106 636.527771,286.112762 640.513611,285.816986 
	C650.075989,285.107574 659.653992,284.370789 669.149902,283.085205 
	C675.528198,282.221649 680.687683,278.951538 685.096191,273.887451 
	C692.897522,264.925842 696.267578,254.515472 697.491943,243.093170 
	C700.396667,245.909576 702.881592,248.741684 705.603088,251.324524 
	C707.429871,253.058182 709.591736,254.438721 711.690002,256.378296 
	C711.791504,264.545288 711.809265,272.311218 711.821167,280.077148 
	C711.832031,287.173065 711.829285,287.175934 718.681152,287.177246 
	C725.119873,287.178467 731.558655,287.172699 738.077759,287.502716 
	C739.335144,289.619141 740.252319,291.661804 741.730591,293.145203 
	C752.764587,304.217560 763.715942,315.383698 775.061829,326.131226 
	C795.961121,345.928345 818.045410,364.368896 841.751465,380.701538 
	C861.880615,394.569824 882.302246,408.057617 903.099487,420.895660 
	C915.910339,428.803833 929.569336,435.373932 943.033875,442.176025 
	C953.814087,447.622070 964.918701,452.422546 975.790771,457.692078 
	C980.312256,459.883667 984.603882,462.549713 989.000000,465.000000 
	C917.979126,465.000000 846.958191,465.000000 775.386963,464.666077 
	C770.438538,460.373291 766.168091,456.260925 761.619507,452.483307 
	C745.295593,438.926086 728.694031,425.696869 712.569092,411.908966 
	C703.888306,404.486298 695.908264,396.236298 687.714844,388.253967 
	C680.733276,381.452271 673.718262,374.669403 667.043640,367.572021 
	C658.063843,358.023468 649.183411,348.363678 640.652954,338.415009 
	C631.395691,327.618622 622.615479,316.414032 613.576782,305.428986 
	C607.376099,297.893188 601.089233,290.428314 595.091797,282.662292 
	C602.042664,280.950684 606.966125,276.935730 610.923828,271.563843 
	C621.867310,256.710083 622.250366,239.750778 620.351135,222.482239 
	C619.041565,210.575012 614.301453,200.253052 605.169861,192.038635 
	C599.594299,187.023117 592.964844,185.281021 585.907715,183.869415 
	C583.968567,179.504257 582.128540,175.472458 580.089233,171.544144 
	C576.907715,165.415695 573.498718,159.404617 570.356201,153.256821 
	C566.848633,146.394653 563.446228,139.475449 560.154358,132.507278 
	C556.704712,125.205132 553.283447,117.881874 550.135010,110.447052 
	C546.209717,101.177559 542.428162,91.840744 538.854248,82.430534 
	C534.473816,70.896599 530.228027,59.306419 526.213440,47.640930 
	C524.281006,42.025547 523.054626,36.169731 521.433899,30.443911 
	C518.653442,20.620546 515.814453,10.813752 513.000000,1.000000 
z"/>
<path fill="#4062AD" opacity="1.000000" stroke="none" 
	d="
M967.507019,217.158188 
	C971.389038,219.215378 975.265686,221.282745 979.154785,223.326538 
	C982.303711,224.981400 985.466858,226.609177 988.625427,228.245651 
	C989.211243,228.549149 990.036499,228.679153 990.360962,229.155289 
	C995.508240,236.706955 1005.009521,237.568726 1011.685974,243.082108 
	C1017.014160,247.482147 1024.488647,249.244232 1030.911133,252.380768 
	C1032.964111,253.383408 1034.577393,255.269455 1036.609619,256.336487 
	C1039.343262,257.771881 1042.302734,258.772247 1045.136841,260.023560 
	C1046.904541,260.804047 1048.613281,261.717285 1050.360229,262.546021 
	C1054.206665,264.370575 1058.046997,266.208618 1061.915161,267.986115 
	C1065.650269,269.702515 1069.415283,271.353821 1073.170898,273.025604 
	C1074.951538,273.818237 1076.692383,275.112854 1078.534302,275.283478 
	C1086.288574,276.001831 1092.980957,279.350861 1099.567017,283.096466 
	C1100.135010,283.419464 1100.808594,283.762848 1101.429199,283.755859 
	C1109.494385,283.664948 1116.213623,287.806213 1123.345581,290.647797 
	C1123.652832,290.770203 1123.979980,290.852905 1124.304810,290.919708 
	C1132.652832,292.635956 1141.460938,293.214081 1149.229126,296.360016 
	C1158.047607,299.931213 1167.112793,299.047485 1175.938477,300.769867 
	C1186.096680,302.752319 1196.095947,305.550415 1206.582031,307.997131 
	C1207.000000,334.020905 1207.000000,360.041779 1206.539185,386.531342 
	C1200.490845,386.353577 1194.884521,385.838104 1189.319702,385.034424 
	C1176.397217,383.168304 1163.364746,381.776489 1150.614746,379.071045 
	C1131.306274,374.973907 1111.947998,370.757629 1093.076172,365.052826 
	C1072.593384,358.861023 1052.404175,351.502350 1032.539795,343.524933 
	C1017.764221,337.591156 1003.346741,330.514435 989.421448,322.774231 
	C969.085205,311.470551 949.288330,299.189728 929.387634,287.117493 
	C926.815796,285.557343 924.995667,282.758087 922.977295,280.249237 
	C930.750244,273.547180 934.237732,265.288849 934.002563,255.400467 
	C933.766846,245.489624 930.151306,237.233109 921.996399,231.751083 
	C922.044739,231.048080 921.996765,230.841934 922.077332,230.722824 
	C922.538025,230.041870 922.997070,229.355438 923.515320,228.718506 
	C928.651062,222.405640 932.522034,215.868744 930.069214,207.089478 
	C927.754089,198.803467 925.654175,189.825729 916.356384,187.457474 
	C907.538208,185.211319 898.141357,185.142838 888.971558,184.519409 
	C888.075378,184.458496 886.240662,187.164993 886.118774,188.689102 
	C885.629089,194.809387 885.552795,200.968903 885.486938,207.115677 
	C885.326721,222.075424 885.257507,237.036163 884.796387,251.930145 
	C881.408997,249.624527 878.103088,247.673248 875.392517,245.095917 
	C863.875305,234.145020 852.617249,222.921219 841.085205,211.986313 
	C836.945374,208.060898 832.300171,204.668488 827.580139,200.859680 
	C825.782410,197.602310 824.437683,194.434265 822.749756,191.461105 
	C821.471924,189.210297 819.755981,187.208191 817.934082,184.919632 
	C815.611084,182.772202 813.303528,181.017471 811.613586,178.793381 
	C801.356873,165.294479 790.647461,152.086166 781.224915,138.020065 
	C768.848145,119.543724 756.598389,100.864815 746.004272,81.344826 
	C735.468079,61.931526 726.868530,41.450191 717.807251,21.263229 
	C714.903320,14.793773 713.234131,7.770097 711.000000,0.999997 
	C739.354248,1.000000 767.708435,1.000000 796.531372,1.000005 
	C800.557190,9.675675 803.929993,18.433109 807.729797,27.001186 
	C810.785156,33.890610 814.355713,40.551659 817.702148,47.311825 
	C818.144775,48.205875 818.446838,49.238941 819.095764,49.950855 
	C827.550232,59.226234 832.570984,70.600777 838.453735,81.448608 
	C838.611877,81.740234 838.782898,82.028557 838.979431,82.295219 
	C847.862793,94.348000 856.605347,106.508438 865.692017,118.406021 
	C870.864807,125.178925 876.247742,131.861893 882.153931,137.989746 
	C895.453430,151.788208 908.941528,165.419464 922.746643,178.709747 
	C929.832764,185.531647 937.727112,191.520599 945.348267,197.773834 
	C946.707031,198.888718 948.516724,199.453949 950.543518,200.784195 
	C946.467102,213.937820 949.302063,224.586304 959.392456,233.483536 
	C965.120605,238.534348 970.642944,243.828583 976.096924,249.177338 
	C981.290710,254.270828 982.191650,263.374573 978.234802,268.320953 
	C974.665222,272.783203 965.986450,273.647705 959.860779,270.151215 
	C951.148560,265.178314 950.545776,265.460449 948.317627,275.586304 
	C948.211243,276.069489 948.258118,276.588898 948.133057,277.065033 
	C947.008301,281.346252 948.915588,284.093597 952.951538,284.718262 
	C959.796143,285.777618 966.798523,287.261322 973.607300,286.776978 
	C984.415344,286.008057 992.405945,280.651428 996.207520,269.598206 
	C1000.101013,258.277496 996.612976,248.743347 989.929626,240.152191 
	C985.903931,234.977173 980.430908,230.944443 975.751526,226.255478 
	C972.864014,223.362061 970.246033,220.199783 967.507019,217.158188 
z"/>
<path fill="#3B5FAB" opacity="1.000000" stroke="none" 
	d="
M989.468628,465.000000 
	C984.603882,462.549713 980.312256,459.883667 975.790771,457.692078 
	C964.918701,452.422546 953.814087,447.622070 943.033875,442.176025 
	C929.569336,435.373932 915.910339,428.803833 903.099487,420.895660 
	C882.302246,408.057617 861.880615,394.569824 841.751465,380.701538 
	C818.045410,364.368896 795.961121,345.928345 775.061829,326.131226 
	C763.715942,315.383698 752.764587,304.217560 741.730591,293.145203 
	C740.252319,291.661804 739.335144,289.619141 738.539673,287.432861 
	C739.920654,287.020844 740.920288,287.015625 741.919739,287.001404 
	C757.059143,286.785614 753.570496,288.897430 754.012390,273.962891 
	C754.101807,270.939880 752.721924,269.862762 749.760864,269.954987 
	C744.767517,270.110413 739.746277,269.723236 734.773438,270.078644 
	C730.386719,270.392181 729.041138,268.928589 729.079529,264.498779 
	C729.278809,241.522079 729.180908,218.542755 729.171997,195.564346 
	C729.166870,182.357376 729.336670,185.243332 718.383362,185.021774 
	C711.171570,184.875885 711.126526,184.996826 711.168213,192.059662 
	C711.294006,213.365631 711.455872,234.671402 711.603699,255.977249 
	C709.591736,254.438721 707.429871,253.058182 705.603088,251.324524 
	C702.881592,248.741684 700.396667,245.909576 697.452332,242.669434 
	C697.060059,236.365143 697.386108,230.546295 696.928284,224.789810 
	C695.270020,203.939377 681.498840,183.116425 656.998962,183.937927 
	C652.379211,175.893936 647.727112,167.868347 643.147827,159.801376 
	C637.106873,149.159561 630.756592,138.671936 625.208252,127.777374 
	C618.375061,114.359810 611.921448,100.726822 605.884705,86.932678 
	C600.918640,75.585152 596.683838,63.910160 592.341309,52.299389 
	C588.457886,41.916168 584.694763,31.480330 581.218018,20.955574 
	C579.147034,14.686027 577.731079,8.200081 576.010376,1.405711 
	C597.354248,1.000000 618.708435,1.000000 640.540771,1.397476 
	C648.015076,21.170046 654.554626,40.727009 662.171570,59.854954 
	C667.072266,72.161812 673.167053,84.046249 679.420166,95.749451 
	C689.503601,114.621346 699.682861,133.474884 710.731018,151.787506 
	C718.868896,165.276382 727.980103,178.253052 737.520081,190.802277 
	C749.781738,206.931610 762.878662,222.427567 775.678894,238.144928 
	C779.020569,242.248047 782.596619,246.160294 786.023865,250.508301 
	C780.013367,262.692719 774.044006,274.529114 767.554993,287.395905 
	C788.200623,287.395905 807.598633,287.395905 827.006958,287.749786 
	C828.142090,289.817902 828.972473,291.858887 830.445740,293.186584 
	C835.354187,297.610199 840.410400,301.881012 845.561462,306.022034 
	C855.776733,314.234283 865.863281,322.634644 876.432007,330.371216 
	C887.004883,338.110718 898.001831,345.288239 908.998474,352.426178 
	C918.614685,358.668091 928.200867,365.055878 938.312317,370.412842 
	C956.047119,379.808624 974.095154,388.627167 992.167542,397.365814 
	C1001.865967,402.055389 1011.685608,406.639099 1021.808105,410.275116 
	C1040.541382,417.004211 1059.476074,423.195312 1078.447632,429.230804 
	C1089.676758,432.803223 1101.029785,436.128326 1112.520142,438.702698 
	C1127.905884,442.149811 1143.403931,445.260742 1158.991699,447.594299 
	C1174.907471,449.976959 1190.990356,451.244354 1207.000000,453.000000 
	C1207.000000,456.992371 1207.000000,460.984772 1207.000000,465.000000 
	C1134.645752,465.000000 1062.291504,465.000000 989.468628,465.000000 
z"/>
<path fill="#264DA2" opacity="1.000000" stroke="none" 
	d="
M222.000000,465.000000 
	C188.312439,465.000000 154.624878,465.000000 120.460388,464.613953 
	C119.529800,462.651672 119.357834,460.918213 118.579147,459.523438 
	C110.260521,444.623199 101.262894,430.070496 93.588791,414.849091 
	C80.828354,389.539032 68.430336,364.021545 56.765667,338.191284 
	C46.858086,316.251953 38.035614,293.814331 29.060461,271.465668 
	C24.560110,260.259521 20.669502,248.801773 16.723392,237.381714 
	C12.939065,226.429855 9.556368,215.338867 5.743673,204.397354 
	C4.599103,201.112747 2.604948,198.124191 1.000001,195.000000 
	C1.000000,130.451904 1.000000,65.903801 1.000000,1.000000 
	C15.685647,1.000000 30.374165,1.000000 45.531342,1.452415 
	C46.135551,4.725090 45.915977,7.616642 46.465469,10.353801 
	C49.555164,25.744329 52.736362,41.118042 56.070309,56.457508 
	C58.907104,69.509552 61.887558,82.532707 65.000168,95.521736 
	C67.657707,106.611710 70.389618,117.691986 73.459457,128.672882 
	C77.018234,141.402740 80.794991,154.079117 84.816643,166.670273 
	C90.004829,182.913681 95.398148,199.094894 100.955917,215.215759 
	C104.626083,225.861450 108.555305,236.427292 112.698128,246.898468 
	C119.699387,264.594421 126.881081,282.220367 134.146072,299.809998 
	C138.197968,309.620209 142.348312,319.402466 146.860565,329.006409 
	C151.570450,339.031067 156.784073,348.818573 161.748077,358.724457 
	C166.195312,367.599091 170.330490,376.642822 175.095810,385.342194 
	C181.151230,396.396698 187.719345,407.169830 194.035995,418.081909 
	C199.007095,426.669556 203.838089,435.339783 208.906723,443.869049 
	C213.139130,450.991180 217.625885,457.962097 222.000000,465.000000 
z"/>
<path fill="#294FA3" opacity="1.000000" stroke="none" 
	d="
M222.468658,465.000000 
	C217.625885,457.962097 213.139130,450.991180 208.906723,443.869049 
	C203.838089,435.339783 199.007095,426.669556 194.035995,418.081909 
	C187.719345,407.169830 181.151230,396.396698 175.095810,385.342194 
	C170.330490,376.642822 166.195312,367.599091 161.748077,358.724457 
	C156.784073,348.818573 151.570450,339.031067 146.860565,329.006409 
	C142.348312,319.402466 138.197968,309.620209 134.146072,299.809998 
	C126.881081,282.220367 119.699387,264.594421 112.698128,246.898468 
	C108.555305,236.427292 104.626083,225.861450 100.955917,215.215759 
	C95.398148,199.094894 90.004829,182.913681 84.816643,166.670273 
	C80.794991,154.079117 77.018234,141.402740 73.459457,128.672882 
	C70.389618,117.691986 67.657707,106.611710 65.000168,95.521736 
	C61.887558,82.532707 58.907104,69.509552 56.070309,56.457508 
	C52.736362,41.118042 49.555164,25.744329 46.465469,10.353801 
	C45.915977,7.616642 46.135551,4.725090 46.000000,1.452415 
	C70.020897,1.000000 94.041786,1.000000 118.534477,1.424266 
	C120.166550,8.546134 121.113815,15.289146 122.529953,21.932203 
	C125.818802,37.360062 129.145416,52.784679 132.807388,68.126907 
	C136.935974,85.423973 140.942535,102.777191 145.924820,119.836517 
	C151.974335,140.550034 158.850342,161.027512 165.633011,181.519653 
	C170.169540,195.225632 174.875595,208.890564 180.035355,222.371170 
	C185.680267,237.119339 191.757141,251.711044 198.028442,266.205353 
	C199.993271,270.746521 203.197159,274.751617 205.903748,279.466034 
	C206.006805,302.211700 205.880493,324.495300 206.141205,346.774353 
	C206.269669,357.751709 216.144516,366.944550 227.078293,367.002136 
	C237.384537,367.056427 247.690765,367.112122 258.007202,367.539246 
	C258.652649,369.590485 259.069397,371.396545 259.958862,372.928070 
	C265.368591,382.243042 270.708588,391.606140 276.408173,400.743408 
	C285.357574,415.090637 294.603546,429.252563 303.664154,443.530884 
	C308.177856,450.643829 312.558929,457.840942 317.000000,465.000000 
	C285.645782,465.000000 254.291550,465.000000 222.468658,465.000000 
z"/>
<path fill="#3459A8" opacity="1.000000" stroke="none" 
	d="
M594.840881,282.931732 
	C601.089233,290.428314 607.376099,297.893188 613.576782,305.428986 
	C622.615479,316.414032 631.395691,327.618622 640.652954,338.415009 
	C649.183411,348.363678 658.063843,358.023468 667.043640,367.572021 
	C673.718262,374.669403 680.733276,381.452271 687.714844,388.253967 
	C695.908264,396.236298 703.888306,404.486298 712.569092,411.908966 
	C728.694031,425.696869 745.295593,438.926086 761.619507,452.483307 
	C766.168091,456.260925 770.438538,460.373291 774.918335,464.666077 
	C710.979126,465.000000 646.958191,465.000000 582.386475,464.668396 
	C575.201355,457.093750 568.600525,449.819580 561.919556,442.619873 
	C558.194092,438.605103 554.152649,434.871857 550.577332,430.732147 
	C544.426270,423.610016 538.493652,416.297577 532.532898,409.013062 
	C525.298767,400.172363 518.130920,391.277496 510.933472,382.406799 
	C509.274384,380.362000 507.175507,378.536255 506.035339,376.234985 
	C503.069672,370.249054 498.841034,365.671204 493.045074,362.389374 
	C499.099304,356.908386 501.254211,350.336060 501.238983,342.551300 
	C501.131744,287.688660 501.186432,232.825714 501.202637,177.962860 
	C501.203217,175.974091 501.341522,173.985352 501.791260,172.063614 
	C503.242889,173.071701 504.696136,173.807755 505.336212,174.985687 
	C511.418488,186.178772 517.061096,197.620605 523.416504,208.653107 
	C533.241638,225.708832 543.470398,242.533875 553.707458,259.347443 
	C554.689819,260.960968 556.938782,261.803314 558.685303,263.459961 
	C558.784912,268.891754 558.842102,273.867584 558.802002,278.842651 
	C558.751709,285.080231 559.484192,286.300476 565.824402,285.900635 
	C575.520386,285.289246 585.171021,283.957642 594.840881,282.931732 
z"/>
<path fill="#4969B1" opacity="1.000000" stroke="none" 
	d="
M1207.000000,178.531342 
	C1200.166138,177.873688 1193.323975,176.794342 1186.499756,175.612411 
	C1164.291748,171.766068 1142.775269,165.337234 1122.187744,156.338257 
	C1103.354248,148.105988 1084.475464,139.645615 1066.714111,129.385895 
	C1048.784058,119.028824 1031.468384,107.373558 1016.305603,92.915138 
	C1007.684509,84.694504 998.265747,77.290680 989.877136,68.852028 
	C982.649841,61.581535 976.236938,53.477997 969.712891,45.538246 
	C962.858704,37.196819 956.001465,28.826431 949.719360,20.057648 
	C945.622559,14.339091 942.549072,7.887361 939.008545,1.382038 
	C1028.245605,1.000000 1117.491333,1.000000 1207.000000,1.000000 
	C1207.000000,60.020634 1207.000000,119.041656 1207.000000,178.531342 
z"/>
<path fill="#3E60AC" opacity="1.000000" stroke="none" 
	d="
M1207.000000,452.531372 
	C1190.990356,451.244354 1174.907471,449.976959 1158.991699,447.594299 
	C1143.403931,445.260742 1127.905884,442.149811 1112.520142,438.702698 
	C1101.029785,436.128326 1089.676758,432.803223 1078.447632,429.230804 
	C1059.476074,423.195312 1040.541382,417.004211 1021.808105,410.275116 
	C1011.685608,406.639099 1001.865967,402.055389 992.167542,397.365814 
	C974.095154,388.627167 956.047119,379.808624 938.312317,370.412842 
	C928.200867,365.055878 918.614685,358.668091 908.998474,352.426178 
	C898.001831,345.288239 887.004883,338.110718 876.432007,330.371216 
	C865.863281,322.634644 855.776733,314.234283 845.561462,306.022034 
	C840.410400,301.881012 835.354187,297.610199 830.445740,293.186584 
	C828.972473,291.858887 828.142090,289.817902 827.468567,287.662354 
	C841.922363,287.221008 855.924744,287.221008 870.508362,287.221008 
	C857.548828,261.032074 845.091980,235.860764 832.637634,210.688217 
	C831.046875,207.473053 829.469299,204.251434 827.885620,201.032776 
	C832.300171,204.668488 836.945374,208.060898 841.085205,211.986313 
	C852.617249,222.921219 863.875305,234.145020 875.392517,245.095917 
	C878.103088,247.673248 881.408997,249.624527 884.910889,252.387268 
	C885.250366,261.545105 885.071289,270.179077 885.007080,278.813934 
	C884.966064,284.331909 886.371399,285.691254 891.883423,286.014709 
	C902.637268,286.645782 913.037415,285.322449 922.827332,280.532806 
	C924.995667,282.758087 926.815796,285.557343 929.387634,287.117493 
	C949.288330,299.189728 969.085205,311.470551 989.421448,322.774231 
	C1003.346741,330.514435 1017.764221,337.591156 1032.539795,343.524933 
	C1052.404175,351.502350 1072.593384,358.861023 1093.076172,365.052826 
	C1111.947998,370.757629 1131.306274,374.973907 1150.614746,379.071045 
	C1163.364746,381.776489 1176.397217,383.168304 1189.319702,385.034424 
	C1194.884521,385.838104 1200.490845,386.353577 1206.539185,387.000000 
	C1207.000000,408.687561 1207.000000,430.375122 1207.000000,452.531372 
z"/>
<path fill="#375BA9" opacity="1.000000" stroke="none" 
	d="
M558.599792,263.003662 
	C556.938782,261.803314 554.689819,260.960968 553.707458,259.347443 
	C543.470398,242.533875 533.241638,225.708832 523.416504,208.653107 
	C517.061096,197.620605 511.418488,186.178772 505.336212,174.985687 
	C504.696136,173.807755 503.242889,173.071701 501.697937,171.665802 
	C501.213440,155.910553 501.232086,140.620010 501.172638,125.329773 
	C501.114868,110.477867 491.673676,101.065376 476.875580,101.002777 
	C463.915527,100.947952 450.955444,100.890388 437.996307,100.417084 
	C437.463165,97.452538 437.137756,94.838036 436.347168,92.372696 
	C435.089996,88.452354 433.307068,84.696053 432.127258,80.756348 
	C428.719543,69.377251 425.394501,57.970856 422.236176,46.520245 
	C418.058563,31.374105 414.069885,16.175856 410.000000,1.000001 
	C444.020905,1.000000 478.041779,1.000000 512.531372,1.000000 
	C515.814453,10.813752 518.653442,20.620546 521.433899,30.443911 
	C523.054626,36.169731 524.281006,42.025547 526.213440,47.640930 
	C530.228027,59.306419 534.473816,70.896599 538.854248,82.430534 
	C542.428162,91.840744 546.209717,101.177559 550.135010,110.447052 
	C553.283447,117.881874 556.704712,125.205132 560.154358,132.507278 
	C563.446228,139.475449 566.848633,146.394653 570.356201,153.256821 
	C573.498718,159.404617 576.907715,165.415695 580.089233,171.544144 
	C582.128540,175.472458 583.968567,179.504257 585.445801,183.830826 
	C579.838074,184.166443 574.682434,184.154892 569.526855,184.156631 
	C559.178711,184.160110 558.830994,184.825653 558.868958,195.176636 
	C558.951904,217.785019 558.709351,240.394577 558.599792,263.003662 
z"/>
<path fill="#3E60AC" opacity="1.000000" stroke="none" 
	d="
M786.065063,250.160233 
	C782.596619,246.160294 779.020569,242.248047 775.678894,238.144928 
	C762.878662,222.427567 749.781738,206.931610 737.520081,190.802277 
	C727.980103,178.253052 718.868896,165.276382 710.731018,151.787506 
	C699.682861,133.474884 689.503601,114.621346 679.420166,95.749451 
	C673.167053,84.046249 667.072266,72.161812 662.171570,59.854954 
	C654.554626,40.727009 648.015076,21.170046 641.009399,1.397476 
	C664.020874,1.000000 687.041809,1.000000 710.531372,0.999997 
	C713.234131,7.770097 714.903320,14.793773 717.807251,21.263229 
	C726.868530,41.450191 735.468079,61.931526 746.004272,81.344826 
	C756.598389,100.864815 768.848145,119.543724 781.224915,138.020065 
	C790.647461,152.086166 801.356873,165.294479 811.613586,178.793381 
	C813.303528,181.017471 815.611084,182.772202 817.892944,185.292267 
	C807.456787,207.280548 796.760925,228.720398 786.065063,250.160233 
z"/>
<path fill="#234AA0" opacity="1.000000" stroke="none" 
	d="
M1.000001,195.468658 
	C2.604948,198.124191 4.599103,201.112747 5.743673,204.397354 
	C9.556368,215.338867 12.939065,226.429855 16.723392,237.381714 
	C20.669502,248.801773 24.560110,260.259521 29.060461,271.465668 
	C38.035614,293.814331 46.858086,316.251953 56.765667,338.191284 
	C68.430336,364.021545 80.828354,389.539032 93.588791,414.849091 
	C101.262894,430.070496 110.260521,444.623199 118.579147,459.523438 
	C119.357834,460.918213 119.529800,462.651672 119.991730,464.613953 
	C80.377975,465.000000 40.755959,465.000000 1.000000,465.000000 
	C1.000000,375.312469 1.000000,285.624908 1.000001,195.468658 
z"/>
<path fill="#2B51A4" opacity="1.000000" stroke="none" 
	d="
M205.833923,279.002075 
	C203.197159,274.751617 199.993271,270.746521 198.028442,266.205353 
	C191.757141,251.711044 185.680267,237.119339 180.035355,222.371170 
	C174.875595,208.890564 170.169540,195.225632 165.633011,181.519653 
	C158.850342,161.027512 151.974335,140.550034 145.924820,119.836517 
	C140.942535,102.777191 136.935974,85.423973 132.807388,68.126907 
	C129.145416,52.784679 125.818802,37.360062 122.529953,21.932203 
	C121.113815,15.289146 120.166550,8.546134 119.003136,1.424266 
	C143.020889,1.000000 167.041794,1.000000 191.542786,1.416112 
	C194.783600,15.492520 197.558594,29.149958 200.298035,42.814518 
	C201.402069,48.321606 202.192078,53.902927 203.543320,59.346626 
	C205.757675,68.267616 208.551270,77.048126 210.647217,85.994102 
	C212.199829,92.620956 216.378250,98.864433 213.868591,106.445587 
	C208.126892,111.651482 205.995331,117.986214 205.996811,125.220596 
	C206.003387,157.676880 206.020187,190.133194 205.994171,222.589462 
	C205.979095,241.393692 205.889801,260.197876 205.833923,279.002075 
z"/>
<path fill="#2F55A6" opacity="1.000000" stroke="none" 
	d="
M492.886719,362.672455 
	C498.841034,365.671204 503.069672,370.249054 506.035339,376.234985 
	C507.175507,378.536255 509.274384,380.362000 510.933472,382.406799 
	C518.130920,391.277496 525.298767,400.172363 532.532898,409.013062 
	C538.493652,416.297577 544.426270,423.610016 550.577332,430.732147 
	C554.152649,434.871857 558.194092,438.605103 561.919556,442.619873 
	C568.600525,449.819580 575.201355,457.093750 581.917847,464.668396 
	C532.645752,465.000000 483.291534,465.000000 433.395935,464.655212 
	C432.373230,463.259033 432.063660,462.078369 431.384491,461.175812 
	C422.922302,449.929230 414.223785,438.855743 405.951447,427.472198 
	C396.036774,413.828583 386.366913,400.002899 376.807831,386.106934 
	C372.595245,379.983124 368.917328,373.491577 365.460663,367.094910 
	C403.086975,367.016754 440.249695,366.920410 477.411102,367.099060 
	C483.174133,367.126740 488.240845,365.947327 492.886719,362.672455 
z"/>
<path fill="#3257A7" opacity="1.000000" stroke="none" 
	d="
M409.531342,1.000001 
	C414.069885,16.175856 418.058563,31.374105 422.236176,46.520245 
	C425.394501,57.970856 428.719543,69.377251 432.127258,80.756348 
	C433.307068,84.696053 435.089996,88.452354 436.347168,92.372696 
	C437.137756,94.838036 437.463165,97.452538 437.532196,100.484314 
	C398.710236,100.923218 360.353271,100.877937 321.907227,100.453194 
	C313.545441,67.049156 305.272705,34.024574 297.000000,1.000000 
	C334.354218,1.000000 371.708466,1.000000 409.531342,1.000001 
z"/>
<path fill="#2C52A4" opacity="1.000000" stroke="none" 
	d="
M364.996643,367.166992 
	C368.917328,373.491577 372.595245,379.983124 376.807831,386.106934 
	C386.366913,400.002899 396.036774,413.828583 405.951447,427.472198 
	C414.223785,438.855743 422.922302,449.929230 431.384491,461.175812 
	C432.063660,462.078369 432.373230,463.259033 432.927277,464.655212 
	C394.645782,465.000000 356.291534,465.000000 317.468658,465.000000 
	C312.558929,457.840942 308.177856,450.643829 303.664154,443.530884 
	C294.603546,429.252563 285.357574,415.090637 276.408173,400.743408 
	C270.708588,391.606140 265.368591,382.243042 259.958862,372.928070 
	C259.069397,371.396545 258.652649,369.590485 258.471191,367.467041 
	C294.282166,367.070862 329.639404,367.118927 364.996643,367.166992 
z"/>
<path fill="#2F54A5" opacity="1.000000" stroke="none" 
	d="
M296.531342,1.000000 
	C305.272705,34.024574 313.545441,67.049156 321.443207,100.521500 
	C291.655853,100.980309 262.242828,101.099838 232.831543,100.922028 
	C225.937286,100.880356 219.688660,102.161560 214.055862,106.158318 
	C216.378250,98.864433 212.199829,92.620956 210.647217,85.994102 
	C208.551270,77.048126 205.757675,68.267616 203.543320,59.346626 
	C202.192078,53.902927 201.402069,48.321606 200.298035,42.814518 
	C197.558594,29.149958 194.783600,15.492520 192.011444,1.416112 
	C226.687561,1.000000 261.375122,1.000000 296.531342,1.000000 
z"/>
<path fill="#F1F9FB" opacity="1.000000" stroke="none" 
	d="
M967.280029,216.848114 
	C970.246033,220.199783 972.864014,223.362061 975.751526,226.255478 
	C980.430908,230.944443 985.903931,234.977173 989.929626,240.152191 
	C996.612976,248.743347 1000.101013,258.277496 996.207520,269.598206 
	C992.405945,280.651428 984.415344,286.008057 973.607300,286.776978 
	C966.798523,287.261322 959.796143,285.777618 952.951538,284.718262 
	C948.915588,284.093597 947.008301,281.346252 948.133057,277.065033 
	C948.258118,276.588898 948.211243,276.069489 948.317627,275.586304 
	C950.545776,265.460449 951.148560,265.178314 959.860779,270.151215 
	C965.986450,273.647705 974.665222,272.783203 978.234802,268.320953 
	C982.191650,263.374573 981.290710,254.270828 976.096924,249.177338 
	C970.642944,243.828583 965.120605,238.534348 959.392456,233.483536 
	C949.302063,224.586304 946.467102,213.937820 950.959717,200.875458 
	C960.335876,183.854233 974.404236,182.317841 985.670227,185.570969 
	C991.468323,187.245224 992.052429,188.425537 990.184326,194.094070 
	C989.926331,194.877060 989.603394,195.638412 989.329224,196.416367 
	C986.784302,203.637375 986.782471,203.645035 979.833130,200.861084 
	C975.493469,199.122604 970.897217,199.010681 967.844910,202.540558 
	C964.337891,206.596161 964.757019,211.715698 967.280029,216.848114 
z"/>
<path fill="#F1F9FB" opacity="1.000000" stroke="none" 
	d="
M558.685303,263.459961 
	C558.709351,240.394577 558.951904,217.785019 558.868958,195.176636 
	C558.830994,184.825653 559.178711,184.160110 569.526855,184.156631 
	C574.682434,184.154892 579.838074,184.166443 585.455566,184.210571 
	C592.964844,185.281021 599.594299,187.023117 605.169861,192.038635 
	C614.301453,200.253052 619.041565,210.575012 620.351135,222.482239 
	C622.250366,239.750778 621.867310,256.710083 610.923828,271.563843 
	C606.966125,276.935730 602.042664,280.950684 595.091797,282.662292 
	C585.171021,283.957642 575.520386,285.289246 565.824402,285.900635 
	C559.484192,286.300476 558.751709,285.080231 558.802002,278.842651 
	C558.842102,273.867584 558.784912,268.891754 558.685303,263.459961 
M593.841187,205.569916 
	C593.204407,205.034790 592.641724,204.186737 591.918762,204.015503 
	C587.321899,202.926636 582.689575,201.987137 578.068970,200.998428 
	C577.553162,204.413330 577.022156,207.826050 576.534912,211.245026 
	C576.441895,211.897751 576.521729,212.575134 576.521606,213.241135 
	C576.518921,230.211624 576.621521,247.183258 576.440308,264.151825 
	C576.394165,268.466980 578.172302,269.729614 582.122192,269.472412 
	C588.244812,269.073669 592.423706,265.843903 596.291809,261.299866 
	C605.002075,251.067520 605.371216,216.965439 593.841187,205.569916 
z"/>
<path fill="#F1F9FB" opacity="1.000000" stroke="none" 
	d="
M656.537476,184.022995 
	C681.498840,183.116425 695.270020,203.939377 696.928284,224.789810 
	C697.386108,230.546295 697.060059,236.365143 697.133179,242.579102 
	C696.267578,254.515472 692.897522,264.925842 685.096191,273.887451 
	C680.687683,278.951538 675.528198,282.221649 669.149902,283.085205 
	C659.653992,284.370789 650.075989,285.107574 640.513611,285.816986 
	C636.527771,286.112762 634.856750,284.196106 634.888306,279.772278 
	C635.096191,250.658325 634.983826,221.542175 635.012329,192.426773 
	C635.018982,185.644730 636.314514,184.340118 643.098145,184.174026 
	C647.422058,184.068146 651.749939,184.124466 656.537476,184.022995 
M670.542114,205.894211 
	C665.973328,204.213943 661.472534,202.301315 656.811035,200.938232 
	C653.891418,200.084518 652.779175,201.818832 652.792725,204.837830 
	C652.883179,224.966644 652.886841,245.096283 652.788635,265.225037 
	C652.773254,268.363403 654.290527,269.354919 656.992249,269.428009 
	C662.043518,269.564758 666.152893,267.792084 669.992859,264.321045 
	C682.272217,253.221436 681.636902,217.850204 670.542114,205.894211 
z"/>
<path fill="#F2FAFB" opacity="1.000000" stroke="none" 
	d="
M711.690002,256.378296 
	C711.455872,234.671402 711.294006,213.365631 711.168213,192.059662 
	C711.126526,184.996826 711.171570,184.875885 718.383362,185.021774 
	C729.336670,185.243332 729.166870,182.357376 729.171997,195.564346 
	C729.180908,218.542755 729.278809,241.522079 729.079529,264.498779 
	C729.041138,268.928589 730.386719,270.392181 734.773438,270.078644 
	C739.746277,269.723236 744.767517,270.110413 749.760864,269.954987 
	C752.721924,269.862762 754.101807,270.939880 754.012390,273.962891 
	C753.570496,288.897430 757.059143,286.785614 741.919739,287.001404 
	C740.920288,287.015625 739.920654,287.020844 738.459229,287.100128 
	C731.558655,287.172699 725.119873,287.178467 718.681152,287.177246 
	C711.829285,287.175934 711.832031,287.173065 711.821167,280.077148 
	C711.809265,272.311218 711.791504,264.545288 711.690002,256.378296 
z"/>
<path fill="#F1F9FB" opacity="1.000000" stroke="none" 
	d="
M922.977295,280.249237 
	C913.037415,285.322449 902.637268,286.645782 891.883423,286.014709 
	C886.371399,285.691254 884.966064,284.331909 885.007080,278.813934 
	C885.071289,270.179077 885.250366,261.545105 885.266235,252.453613 
	C885.257507,237.036163 885.326721,222.075424 885.486938,207.115677 
	C885.552795,200.968903 885.629089,194.809387 886.118774,188.689102 
	C886.240662,187.164993 888.075378,184.458496 888.971558,184.519409 
	C898.141357,185.142838 907.538208,185.211319 916.356384,187.457474 
	C925.654175,189.825729 927.754089,198.803467 930.069214,207.089478 
	C932.522034,215.868744 928.651062,222.405640 923.515320,228.718506 
	C922.997070,229.355438 922.538025,230.041870 922.077332,230.722824 
	C921.996765,230.841934 922.044739,231.048080 921.996399,231.751083 
	C930.151306,237.233109 933.766846,245.489624 934.002563,255.400467 
	C934.237732,265.288849 930.750244,273.547180 922.977295,280.249237 
M914.776428,248.001450 
	C913.901428,246.232834 913.462830,243.845459 912.045532,242.845779 
	C910.091980,241.467911 907.388245,240.592422 905.028809,240.639969 
	C904.141541,240.657852 902.701050,243.816452 902.579285,245.615372 
	C902.177307,251.555679 902.095093,257.532257 902.212341,263.488556 
	C902.309204,268.410370 903.989990,269.440521 908.481506,267.380554 
	C910.360107,266.518951 912.107727,265.052307 913.488220,263.485016 
	C917.423767,259.016998 915.662231,253.818680 914.776428,248.001450 
M912.651245,218.788498 
	C915.919128,210.599304 913.176575,202.941956 906.191040,200.562317 
	C904.003479,199.817108 902.068115,199.485443 902.033142,202.614899 
	C901.948364,210.193985 902.005554,217.774658 902.005554,225.354691 
	C902.502319,225.721817 902.999084,226.088943 903.495850,226.456070 
	C906.412354,224.120682 909.328857,221.785278 912.651245,218.788498 
z"/>
<path fill="#F1F9FB" opacity="1.000000" stroke="none" 
	d="
M786.023865,250.508301 
	C796.760925,228.720398 807.456787,207.280548 818.193787,185.468079 
	C819.755981,187.208191 821.471924,189.210297 822.749756,191.461105 
	C824.437683,194.434265 825.782410,197.602310 827.580139,200.859680 
	C829.469299,204.251434 831.046875,207.473053 832.637634,210.688217 
	C845.091980,235.860764 857.548828,261.032074 870.508362,287.221008 
	C855.924744,287.221008 841.922363,287.221008 827.458252,287.308472 
	C807.598633,287.395905 788.200623,287.395905 767.554993,287.395905 
	C774.044006,274.529114 780.013367,262.692719 786.023865,250.508301 
M831.028931,252.990753 
	C827.699158,252.990860 824.369324,252.991043 821.039551,252.991089 
	C813.167480,252.991180 813.167480,252.991165 810.479126,261.190491 
	C822.932190,261.190491 835.275940,261.190491 848.344482,261.190491 
	C838.639954,241.786102 829.203735,222.918182 819.364563,203.244583 
	C806.578003,228.835571 794.230286,253.548340 781.714539,278.597260 
	C807.210815,278.597260 831.771362,278.597260 856.408264,278.597260 
	C853.805420,270.159760 853.805420,270.158875 845.597229,270.157684 
	C832.777161,270.155792 819.957031,270.155121 807.136963,270.154114 
	C803.565552,270.153839 799.994080,270.154083 795.702454,270.154083 
	C803.806213,253.939026 811.506897,238.530411 819.493896,222.548965 
	C824.284973,232.133453 828.842468,241.150253 833.222473,250.252487 
	C833.496094,250.821213 832.379822,252.058792 831.028931,252.990753 
z"/>
<path fill="#F4FCFC" opacity="1.000000" stroke="none" 
	d="
M213.868591,106.445587 
	C219.688660,102.161560 225.937286,100.880356 232.831543,100.922028 
	C262.242828,101.099838 291.655853,100.980309 321.532288,100.900963 
	C360.353271,100.877937 398.710236,100.923218 437.531281,100.901268 
	C450.955444,100.890388 463.915527,100.947952 476.875580,101.002777 
	C491.673676,101.065376 501.114868,110.477867 501.172638,125.329773 
	C501.232086,140.620010 501.213440,155.910553 501.322296,171.598785 
	C501.341522,173.985352 501.203217,175.974091 501.202637,177.962860 
	C501.186432,232.825714 501.131744,287.688660 501.238983,342.551300 
	C501.254211,350.336060 499.099304,356.908386 493.045074,362.389374 
	C488.240845,365.947327 483.174133,367.126740 477.411102,367.099060 
	C440.249695,366.920410 403.086975,367.016754 365.460663,367.094910 
	C329.639404,367.118927 294.282166,367.070862 258.460968,367.094971 
	C247.690765,367.112122 237.384537,367.056427 227.078293,367.002136 
	C216.144516,366.944550 206.269669,357.751709 206.141205,346.774353 
	C205.880493,324.495300 206.006805,302.211700 205.903748,279.466034 
	C205.889801,260.197876 205.979095,241.393692 205.994171,222.589462 
	C206.020187,190.133194 206.003387,157.676880 205.996811,125.220596 
	C205.995331,117.986214 208.126892,111.651482 213.868591,106.445587 
M400.326447,279.269592 
	C400.535187,279.459198 400.743896,279.648834 400.530518,280.379333 
	C399.477478,281.076508 398.424408,281.773682 397.371368,282.470856 
	C397.579285,282.893188 397.787201,283.315521 397.995087,283.737854 
	C402.566528,281.470520 407.310669,279.491516 411.674408,276.877472 
	C421.603149,270.929657 430.498199,263.804291 435.536835,252.950409 
	C440.134552,243.046341 437.306091,234.019012 427.879944,228.828598 
	C425.238922,227.374344 422.266754,226.521378 419.871490,225.562698 
	C422.818665,208.100281 422.771759,191.451950 414.128540,175.795242 
	C409.595795,167.584412 401.828369,163.660629 393.358429,166.224960 
	C389.274658,167.461334 385.793915,170.689560 381.355774,172.936920 
	C379.320129,171.945892 377.284485,170.954865 374.968231,169.330978 
	C362.123932,159.103745 347.884186,152.469269 331.088531,154.291046 
	C321.443115,155.337265 316.081970,161.904068 316.043488,171.595474 
	C316.025604,176.106613 317.123199,180.622192 317.736420,185.297714 
	C315.043396,186.348892 312.199066,187.459122 309.354736,188.569351 
	C309.213074,188.269440 309.071411,187.969543 308.929749,187.669632 
	C309.882172,186.610779 310.834625,185.551926 311.787048,184.493073 
	C311.448181,184.153687 311.109314,183.814301 310.770447,183.474915 
	C296.041199,190.869095 281.610016,198.783127 275.072784,215.480789 
	C271.231018,225.293625 275.473511,233.984451 285.307068,238.178192 
	C287.537628,239.129456 289.823364,239.951370 292.407013,240.958923 
	C291.762085,241.722824 291.335144,242.000366 291.265625,242.349136 
	C290.908691,244.140274 290.525604,245.939301 290.365051,247.754425 
	C289.012787,263.043701 289.470886,278.089722 298.063507,291.565277 
	C304.169159,301.140594 313.234955,303.399536 322.901276,297.738434 
	C326.633057,295.552887 329.753387,292.323364 333.300018,289.449829 
	C334.649658,291.037598 335.936584,292.551605 337.760468,294.697296 
	C335.369843,294.475830 333.942169,294.343567 331.786133,294.143860 
	C334.228577,295.926636 335.923279,297.249481 337.701935,298.447723 
	C348.124542,305.469299 359.174805,311.009247 371.899902,312.302795 
	C389.413483,314.083069 398.784515,303.167999 394.371887,286.211395 
	C393.957581,284.619385 393.362671,283.074371 392.801605,281.354187 
	C395.099213,280.469330 397.402161,279.582367 400.326447,279.269592 
z"/>
<path fill="#395CAA" opacity="1.000000" stroke="none" 
	d="
M594.100952,205.834625 
	C605.371216,216.965439 605.002075,251.067520 596.291809,261.299866 
	C592.423706,265.843903 588.244812,269.073669 582.122192,269.472412 
	C578.172302,269.729614 576.394165,268.466980 576.440308,264.151825 
	C576.621521,247.183258 576.518921,230.211624 576.521606,213.241135 
	C576.521729,212.575134 576.441895,211.897751 576.534912,211.245026 
	C577.022156,207.826050 577.553162,204.413330 578.068970,200.998428 
	C582.689575,201.987137 587.321899,202.926636 591.918762,204.015503 
	C592.641724,204.186737 593.204407,205.034790 594.100952,205.834625 
z"/>
<path fill="#3B5FAB" opacity="1.000000" stroke="none" 
	d="
M670.762329,206.189377 
	C681.636902,217.850204 682.272217,253.221436 669.992859,264.321045 
	C666.152893,267.792084 662.043518,269.564758 656.992249,269.428009 
	C654.290527,269.354919 652.773254,268.363403 652.788635,265.225037 
	C652.886841,245.096283 652.883179,224.966644 652.792725,204.837830 
	C652.779175,201.818832 653.891418,200.084518 656.811035,200.938232 
	C661.472534,202.301315 665.973328,204.213943 670.762329,206.189377 
z"/>
<path fill="#4969B1" opacity="1.000000" stroke="none" 
	d="
M914.878174,248.397583 
	C915.662231,253.818680 917.423767,259.016998 913.488220,263.485016 
	C912.107727,265.052307 910.360107,266.518951 908.481506,267.380554 
	C903.989990,269.440521 902.309204,268.410370 902.212341,263.488556 
	C902.095093,257.532257 902.177307,251.555679 902.579285,245.615372 
	C902.701050,243.816452 904.141541,240.657852 905.028809,240.639969 
	C907.388245,240.592422 910.091980,241.467911 912.045532,242.845779 
	C913.462830,243.845459 913.901428,246.232834 914.878174,248.397583 
z"/>
<path fill="#4969B1" opacity="1.000000" stroke="none" 
	d="
M912.448303,219.119202 
	C909.328857,221.785278 906.412354,224.120682 903.495850,226.456070 
	C902.999084,226.088943 902.502319,225.721817 902.005554,225.354691 
	C902.005554,217.774658 901.948364,210.193985 902.033142,202.614899 
	C902.068115,199.485443 904.003479,199.817108 906.191040,200.562317 
	C913.176575,202.941956 915.919128,210.599304 912.448303,219.119202 
z"/>
<path fill="#4465AE" opacity="1.000000" stroke="none" 
	d="
M831.469604,252.987961 
	C832.379822,252.058792 833.496094,250.821213 833.222473,250.252487 
	C828.842468,241.150253 824.284973,232.133453 819.493896,222.548965 
	C811.506897,238.530411 803.806213,253.939026 795.702454,270.154083 
	C799.994080,270.154083 803.565552,270.153839 807.136963,270.154114 
	C819.957031,270.155121 832.777161,270.155792 845.597229,270.157684 
	C853.805420,270.158875 853.805420,270.159760 856.408264,278.597260 
	C831.771362,278.597260 807.210815,278.597260 781.714539,278.597260 
	C794.230286,253.548340 806.578003,228.835571 819.364563,203.244583 
	C829.203735,222.918182 838.639954,241.786102 848.344482,261.190491 
	C835.275940,261.190491 822.932190,261.190491 810.479126,261.190491 
	C813.167480,252.991165 813.167480,252.991180 821.039551,252.991089 
	C824.369324,252.991043 827.699158,252.990860 831.469604,252.987961 
z"/>
<path fill="#244BA1" opacity="1.000000" stroke="none" 
	d="
M399.705139,278.695435 
	C397.402161,279.582367 395.099213,280.469330 392.801605,281.354187 
	C393.362671,283.074371 393.957581,284.619385 394.371887,286.211395 
	C398.784515,303.167999 389.413483,314.083069 371.899902,312.302795 
	C359.174805,311.009247 348.124542,305.469299 337.701935,298.447723 
	C335.923279,297.249481 334.228577,295.926636 331.786133,294.143860 
	C333.942169,294.343567 335.369843,294.475830 337.760468,294.697296 
	C335.936584,292.551605 334.649658,291.037598 333.300018,289.449829 
	C329.753387,292.323364 326.633057,295.552887 322.901276,297.738434 
	C313.234955,303.399536 304.169159,301.140594 298.063507,291.565277 
	C289.470886,278.089722 289.012787,263.043701 290.365051,247.754425 
	C290.525604,245.939301 290.908691,244.140274 291.265625,242.349136 
	C291.335144,242.000366 291.762085,241.722824 292.407013,240.958923 
	C289.823364,239.951370 287.537628,239.129456 285.307068,238.178192 
	C275.473511,233.984451 271.231018,225.293625 275.072784,215.480789 
	C281.610016,198.783127 296.041199,190.869095 310.770447,183.474915 
	C311.109314,183.814301 311.448181,184.153687 311.787048,184.493073 
	C310.834625,185.551926 309.882172,186.610779 308.929749,187.669632 
	C309.071411,187.969543 309.213074,188.269440 309.354736,188.569351 
	C312.199066,187.459122 315.043396,186.348892 317.736420,185.297714 
	C317.123199,180.622192 316.025604,176.106613 316.043488,171.595474 
	C316.081970,161.904068 321.443115,155.337265 331.088531,154.291046 
	C347.884186,152.469269 362.123932,159.103745 374.956390,169.957336 
	C371.768433,169.295731 368.588226,168.017746 365.416931,166.717987 
	C355.020264,162.456833 344.412933,159.136581 333.023163,161.550034 
	C325.508728,163.142303 323.121521,168.715729 326.445465,175.867737 
	C344.026672,170.392303 361.655640,162.824783 379.153137,176.754837 
	C380.036957,175.610199 381.038544,174.313034 382.040131,173.015869 
	C385.793915,170.689560 389.274658,167.461334 393.358429,166.224960 
	C401.828369,163.660629 409.595795,167.584412 414.128540,175.795242 
	C422.771759,191.451950 422.818665,208.100281 419.871490,225.562698 
	C422.266754,226.521378 425.238922,227.374344 427.879944,228.828598 
	C437.306091,234.019012 440.134552,243.046341 435.536835,252.950409 
	C430.498199,263.804291 421.603149,270.929657 411.674408,276.877472 
	C407.310669,279.491516 402.566528,281.470520 397.995087,283.737854 
	C397.787201,283.315521 397.579285,282.893188 397.371368,282.470856 
	C398.424408,281.773682 399.477478,281.076508 401.172729,279.969208 
	C402.470917,278.826477 403.126923,278.093872 403.782928,277.361267 
	C403.512543,277.121857 403.242157,276.882446 402.971771,276.643036 
	C401.882874,277.327179 400.794006,278.011292 399.705139,278.695435 
M396.253082,189.311707 
	C393.769104,186.694595 391.285126,184.077484 388.652985,181.304276 
	C380.802002,191.899658 378.987305,203.856445 377.053436,215.827408 
	C376.361298,220.111969 377.596100,222.331360 381.928162,223.130371 
	C385.489716,223.787247 388.955963,225.645126 392.476715,225.678452 
	C397.724670,225.728180 403.992889,227.204559 407.629761,222.004028 
	C411.145599,216.976654 408.721893,211.461761 406.872955,206.279266 
	C406.707458,205.815430 406.439819,205.381073 406.176117,204.960297 
	C403.022339,199.927246 399.860352,194.899338 396.253082,189.311707 
M325.818787,197.531967 
	C322.124298,192.738190 318.020538,192.133209 313.137726,195.957123 
	C306.412994,201.223495 302.298553,208.417267 299.145538,216.153122 
	C297.278473,220.734085 295.923676,225.523865 294.158386,230.753448 
	C308.885101,231.449219 321.198578,227.361481 333.078247,221.609039 
	C333.883606,221.219070 334.586090,219.461563 334.448181,218.462738 
	C333.421631,211.028671 331.952789,203.714844 325.818787,197.531967 
M311.488831,241.001541 
	C303.980988,240.408585 301.158020,245.845047 302.372498,251.892853 
	C305.056671,265.259277 313.084747,275.291260 322.948334,284.838898 
	C331.352142,272.387939 333.356323,258.935059 334.732056,245.085678 
	C327.256226,242.274811 320.312744,238.928162 311.488831,241.001541 
M346.512848,265.033997 
	C345.549622,266.176514 344.323578,267.186737 343.670135,268.485138 
	C341.258881,273.276337 336.806458,278.070190 339.326080,283.616028 
	C341.783936,289.025879 347.812103,290.705963 353.336884,290.666687 
	C363.394196,290.595123 373.445160,289.629822 384.630707,288.970734 
	C383.116577,285.781067 382.679474,283.904572 381.552307,282.646210 
	C375.706940,276.120300 370.066742,269.335602 363.624512,263.439178 
	C356.294403,256.730072 355.960205,257.097321 348.524719,263.236603 
	C348.011322,263.660522 347.468719,264.049072 346.512848,265.033997 
M394.837982,238.128296 
	C389.584290,240.147781 384.271667,242.033234 379.125549,244.297241 
	C378.067047,244.762924 376.904633,246.719559 377.025604,247.857651 
	C377.786499,255.014801 379.645966,261.753235 384.479156,267.505280 
	C390.009094,274.086609 394.175537,274.606995 400.421814,268.499939 
	C409.514526,259.609985 413.471771,248.097229 417.401672,234.496460 
	C409.410706,235.766464 402.524170,236.860947 394.837982,238.128296 
M337.258789,193.236328 
	C342.614105,197.914261 347.880585,202.702332 353.410706,207.163559 
	C354.351288,207.922348 356.897491,207.918304 357.892944,207.178360 
	C363.508057,203.004547 368.294189,198.177643 370.950958,191.342606 
	C373.969757,183.576263 373.089966,179.978485 365.171631,177.209076 
	C352.561157,172.798645 340.130737,175.556229 326.321716,178.923920 
	C330.277924,184.156296 333.516968,188.440231 337.258789,193.236328 
M398.514008,185.985397 
	C401.247437,188.882553 404.318787,191.533020 406.648499,194.724854 
	C412.722900,203.047028 418.861786,211.443695 416.305328,222.844101 
	C416.110565,223.712677 417.504364,224.937485 418.159790,225.996704 
	C418.908691,225.734802 419.657623,225.472916 420.406525,225.211014 
	C418.582184,214.646332 417.476471,203.884888 414.658264,193.592331 
	C413.022430,187.618103 409.285706,181.867813 405.309113,176.981293 
	C401.045471,171.742065 394.270508,173.309875 390.711975,179.509552 
	C393.107544,181.522232 395.521057,183.549942 398.514008,185.985397 
M303.688232,269.865082 
	C296.630798,261.666229 292.794678,252.493591 295.332306,241.128418 
	C293.930389,241.128418 292.756683,241.128418 291.641083,241.128418 
	C292.118134,246.169601 292.376740,250.986740 293.063354,255.742096 
	C294.704559,267.109253 296.379150,278.523834 304.411469,287.613403 
	C309.942963,293.872955 314.747040,293.778870 320.151428,287.949432 
	C314.752411,282.128937 309.368530,276.324707 303.688232,269.865082 
M291.941833,228.994690 
	C293.944916,213.582108 298.319305,199.183121 309.795532,187.629547 
	C307.285187,188.512619 305.247589,189.724442 303.388428,191.166336 
	C295.056641,197.628113 287.481567,204.783813 283.190613,214.697098 
	C279.526245,223.162872 282.840820,228.978516 291.941833,228.994690 
M364.894409,296.352020 
	C356.939117,296.352020 348.983826,296.352020 341.028534,296.352020 
	C344.969391,298.977814 349.259277,300.793304 353.667877,302.249268 
	C361.935120,304.979584 370.377289,306.871948 379.048676,304.407104 
	C386.281189,302.351318 388.240112,297.112000 384.849640,290.536163 
	C378.433105,292.420166 372.081573,294.285065 364.894409,296.352020 
M419.183929,239.214951 
	C417.313782,253.366730 412.513092,266.321503 403.166351,277.550781 
	C406.025421,276.345032 408.402252,274.906982 410.477417,273.118835 
	C418.550964,266.162048 426.464294,259.024323 429.245667,248.107117 
	C430.749023,242.206100 427.601562,237.309448 421.729462,236.502441 
	C421.006378,236.403061 420.087738,237.726746 419.183929,239.214951 
M363.192596,232.943832 
	C364.486542,226.350143 358.239319,226.840790 355.420471,224.186905 
	C347.897278,229.203247 347.897247,229.203247 348.153107,234.425018 
	C348.289490,237.208206 352.956024,241.649139 355.859070,241.758453 
	C358.347839,241.852158 363.311249,236.464813 363.192596,232.943832 
z"/>
<path fill="#E9F2F7" opacity="1.000000" stroke="none" 
	d="
M381.697937,172.976410 
	C381.038544,174.313034 380.036957,175.610199 379.153137,176.754837 
	C361.655640,162.824783 344.026672,170.392303 326.445465,175.867737 
	C323.121521,168.715729 325.508728,163.142303 333.023163,161.550034 
	C344.412933,159.136581 355.020264,162.456833 365.416931,166.717987 
	C368.588226,168.017746 371.768433,169.295731 375.096680,170.273773 
	C377.284485,170.954865 379.320129,171.945892 381.697937,172.976410 
z"/>
<path fill="#F2FAFB" opacity="1.000000" stroke="none" 
	d="
M396.476807,189.590897 
	C399.860352,194.899338 403.022339,199.927246 406.176117,204.960297 
	C406.439819,205.381073 406.707458,205.815430 406.872955,206.279266 
	C408.721893,211.461761 411.145599,216.976654 407.629761,222.004028 
	C403.992889,227.204559 397.724670,225.728180 392.476715,225.678452 
	C388.955963,225.645126 385.489716,223.787247 381.928162,223.130371 
	C377.596100,222.331360 376.361298,220.111969 377.053436,215.827408 
	C378.987305,203.856445 380.802002,191.899658 388.652985,181.304276 
	C391.285126,184.077484 393.769104,186.694595 396.476807,189.590897 
z"/>
<path fill="#F2FAFB" opacity="1.000000" stroke="none" 
	d="
M326.020081,197.849243 
	C331.952789,203.714844 333.421631,211.028671 334.448181,218.462738 
	C334.586090,219.461563 333.883606,221.219070 333.078247,221.609039 
	C321.198578,227.361481 308.885101,231.449219 294.158386,230.753448 
	C295.923676,225.523865 297.278473,220.734085 299.145538,216.153122 
	C302.298553,208.417267 306.412994,201.223495 313.137726,195.957123 
	C318.020538,192.133209 322.124298,192.738190 326.020081,197.849243 
z"/>
<path fill="#F2FAFB" opacity="1.000000" stroke="none" 
	d="
M311.911652,240.952576 
	C320.312744,238.928162 327.256226,242.274811 334.732056,245.085678 
	C333.356323,258.935059 331.352142,272.387939 322.948334,284.838898 
	C313.084747,275.291260 305.056671,265.259277 302.372498,251.892853 
	C301.158020,245.845047 303.980988,240.408585 311.911652,240.952576 
z"/>
<path fill="#F2FAFB" opacity="1.000000" stroke="none" 
	d="
M346.726257,264.744019 
	C347.468719,264.049072 348.011322,263.660522 348.524719,263.236603 
	C355.960205,257.097321 356.294403,256.730072 363.624512,263.439178 
	C370.066742,269.335602 375.706940,276.120300 381.552307,282.646210 
	C382.679474,283.904572 383.116577,285.781067 384.630707,288.970734 
	C373.445160,289.629822 363.394196,290.595123 353.336884,290.666687 
	C347.812103,290.705963 341.783936,289.025879 339.326080,283.616028 
	C336.806458,278.070190 341.258881,273.276337 343.670135,268.485138 
	C344.323578,267.186737 345.549622,266.176514 346.726257,264.744019 
z"/>
<path fill="#F2FAFB" opacity="1.000000" stroke="none" 
	d="
M395.237793,238.041870 
	C402.524170,236.860947 409.410706,235.766464 417.401672,234.496460 
	C413.471771,248.097229 409.514526,259.609985 400.421814,268.499939 
	C394.175537,274.606995 390.009094,274.086609 384.479156,267.505280 
	C379.645966,261.753235 377.786499,255.014801 377.025604,247.857651 
	C376.904633,246.719559 378.067047,244.762924 379.125549,244.297241 
	C384.271667,242.033234 389.584290,240.147781 395.237793,238.041870 
z"/>
<path fill="#F2FAFB" opacity="1.000000" stroke="none" 
	d="
M337.007416,192.980255 
	C333.516968,188.440231 330.277924,184.156296 326.321716,178.923920 
	C340.130737,175.556229 352.561157,172.798645 365.171631,177.209076 
	C373.089966,179.978485 373.969757,183.576263 370.950958,191.342606 
	C368.294189,198.177643 363.508057,203.004547 357.892944,207.178360 
	C356.897491,207.918304 354.351288,207.922348 353.410706,207.163559 
	C347.880585,202.702332 342.614105,197.914261 337.007416,192.980255 
z"/>
<path fill="#F4FCFC" opacity="1.000000" stroke="none" 
	d="
M398.224274,185.781525 
	C395.521057,183.549942 393.107544,181.522232 390.711975,179.509552 
	C394.270508,173.309875 401.045471,171.742065 405.309113,176.981293 
	C409.285706,181.867813 413.022430,187.618103 414.658264,193.592331 
	C417.476471,203.884888 418.582184,214.646332 420.406525,225.211014 
	C419.657623,225.472916 418.908691,225.734802 418.159790,225.996704 
	C417.504364,224.937485 416.110565,223.712677 416.305328,222.844101 
	C418.861786,211.443695 412.722900,203.047028 406.648499,194.724854 
	C404.318787,191.533020 401.247437,188.882553 398.224274,185.781525 
z"/>
<path fill="#F4FCFC" opacity="1.000000" stroke="none" 
	d="
M303.836426,270.192780 
	C309.368530,276.324707 314.752411,282.128937 320.151428,287.949432 
	C314.747040,293.778870 309.942963,293.872955 304.411469,287.613403 
	C296.379150,278.523834 294.704559,267.109253 293.063354,255.742096 
	C292.376740,250.986740 292.118134,246.169601 291.641083,241.128418 
	C292.756683,241.128418 293.930389,241.128418 295.332306,241.128418 
	C292.794678,252.493591 296.630798,261.666229 303.836426,270.192780 
z"/>
<path fill="#F4FCFC" opacity="1.000000" stroke="none" 
	d="
M291.794556,229.383514 
	C282.840820,228.978516 279.526245,223.162872 283.190613,214.697098 
	C287.481567,204.783813 295.056641,197.628113 303.388428,191.166336 
	C305.247589,189.724442 307.285187,188.512619 309.795532,187.629547 
	C298.319305,199.183121 293.944916,213.582108 291.794556,229.383514 
z"/>
<path fill="#F4FCFC" opacity="1.000000" stroke="none" 
	d="
M365.312225,296.250977 
	C372.081573,294.285065 378.433105,292.420166 384.849640,290.536163 
	C388.240112,297.112000 386.281189,302.351318 379.048676,304.407104 
	C370.377289,306.871948 361.935120,304.979584 353.667877,302.249268 
	C349.259277,300.793304 344.969391,298.977814 341.028534,296.352020 
	C348.983826,296.352020 356.939117,296.352020 365.312225,296.250977 
z"/>
<path fill="#F4FCFC" opacity="1.000000" stroke="none" 
	d="
M419.221832,238.802963 
	C420.087738,237.726746 421.006378,236.403061 421.729462,236.502441 
	C427.601562,237.309448 430.749023,242.206100 429.245667,248.107117 
	C426.464294,259.024323 418.550964,266.162048 410.477417,273.118835 
	C408.402252,274.906982 406.025421,276.345032 403.166351,277.550781 
	C412.513092,266.321503 417.313782,253.366730 419.221832,238.802963 
z"/>
<path fill="#E9F2F7" opacity="1.000000" stroke="none" 
	d="
M363.228210,233.332504 
	C363.311249,236.464813 358.347839,241.852158 355.859070,241.758453 
	C352.956024,241.649139 348.289490,237.208206 348.153107,234.425018 
	C347.897247,229.203247 347.897278,229.203247 355.420471,224.186905 
	C358.239319,226.840790 364.486542,226.350143 363.228210,233.332504 
z"/>
<path fill="#F4FCFC" opacity="1.000000" stroke="none" 
	d="
M400.015808,278.982513 
	C400.794006,278.011292 401.882874,277.327179 402.971771,276.643036 
	C403.242157,276.882446 403.512543,277.121857 403.782928,277.361267 
	C403.126923,278.093872 402.470917,278.826477 401.383728,279.698761 
	C400.743896,279.648834 400.535187,279.459198 400.015808,278.982513 
z"/>
</svg>